<svg xmlns="http://www.w3.org/2000/svg" viewBox="0 0 1190 239" role="img" aria-label="Ruta de selección de registros"><defs><linearGradient id="bg"><stop stop-color="#102d43"/><stop offset="1" stop-color="#124c54"/></linearGradient><marker id="arrow" markerWidth="8" markerHeight="8" refX="7" refY="4" orient="auto"><path d="M0 0 L8 4 L0 8Z" fill="#92d6d4"/></marker></defs><rect width="1190" height="239" rx="21" fill="url(#bg)"/><text x="23" y="29" fill="#a9dcda" font-family="Segoe UI,Arial,sans-serif" font-size="13" font-weight="700" letter-spacing="1.8">RUTA DE LOS REGISTROS</text><rect x="20" y="47" width="143" height="69" rx="13" fill="#8b482f" stroke="#87cecb" stroke-opacity=".48"/><text x="35" y="89" fill="white" font-family="Segoe UI,Arial,sans-serif" font-size="25" font-weight="700">629</text><text x="35" y="108" fill="#d7f1ee" font-family="Segoe UI,Arial,sans-serif" font-size="12">Scopus</text><rect x="20" y="126" width="143" height="69" rx="13" fill="#2b5480" stroke="#87cecb" stroke-opacity=".48"/><text x="35" y="168" fill="white" font-family="Segoe UI,Arial,sans-serif" font-size="25" font-weight="700">264</text><text x="35" y="187" fill="#d7f1ee" font-family="Segoe UI,Arial,sans-serif" font-size="12">Web of Science</text><path d="M164 83 H179 Q188 83 188 101 V120 H201 M164 162 H179 Q188 162 188 144 V120" fill="none" stroke="#92d6d4" stroke-width="3" marker-end="url(#arrow)"/><rect x="216" y="76" width="169" height="99" rx="13" fill="#1c6e76" stroke="#87cecb" stroke-opacity=".48"/><text x="231" y="118" fill="white" font-family="Segoe UI,Arial,sans-serif" font-size="34" font-weight="700">893</text><text x="231" y="145" fill="#d7f1ee" font-family="Segoe UI,Arial,sans-serif" font-size="12">reunidos</text><path d="M385 125 H403" stroke="#92d6d4" stroke-width="3" marker-end="url(#arrow)"/><rect x="405" y="76" width="169" height="99" rx="13" fill="#214c60" stroke="#87cecb" stroke-opacity=".48"/><text x="420" y="118" fill="white" font-family="Segoe UI,Arial,sans-serif" font-size="34" font-weight="700">−227</text><text x="420" y="145" fill="#d7f1ee" font-family="Segoe UI,Arial,sans-serif" font-size="12">duplicados</text><path d="M574 125 H592" stroke="#92d6d4" stroke-width="3" marker-end="url(#arrow)"/><rect x="594" y="76" width="169" height="99" rx="13" fill="#295b70" stroke="#87cecb" stroke-opacity=".48"/><text x="609" y="118" fill="white" font-family="Segoe UI,Arial,sans-serif" font-size="34" font-weight="700">666</text><text x="609" y="145" fill="#d7f1ee" font-family="Segoe UI,Arial,sans-serif" font-size="12">sin duplicados</text><path d="M763 125 H781" stroke="#92d6d4" stroke-width="3" marker-end="url(#arrow)"/><rect x="783" y="76" width="169" height="99" rx="13" fill="#70534c" stroke="#87cecb" stroke-opacity=".48"/><text x="798" y="118" fill="white" font-family="Segoe UI,Arial,sans-serif" font-size="34" font-weight="700">−65</text><text x="798" y="145" fill="#d7f1ee" font-family="Segoe UI,Arial,sans-serif" font-size="12">fuera del tema</text><path d="M952 125 H970" stroke="#92d6d4" stroke-width="3" marker-end="url(#arrow)"/><rect x="972" y="76" width="169" height="99" rx="13" fill="#188d83" stroke="#87cecb" stroke-opacity=".48"/><text x="987" y="118" fill="white" font-family="Segoe UI,Arial,sans-serif" font-size="34" font-weight="700">601</text><text x="987" y="145" fill="#d7f1ee" font-family="Segoe UI,Arial,sans-serif" font-size="12">dataset final</text><text x="23" y="220" fill="#b6d5d4" font-family="Segoe UI,Arial,sans-serif" font-size="11">Se conserva termografía o imagen térmica/infrarroja de mama. Elegibilidad sujeta a revisión del texto completo.</text></svg>